<svg xmlns="http://www.w3.org/2000/svg" xmlns:xlink="http://www.w3.org/1999/xlink" width="450" zoomAndPan="magnify" viewBox="0 0 337.5 225" height="300" preserveAspectRatio="xMidYMid meet" version="1.0"><defs><g/><clipPath id="cc89b600df"><path d="M 0 0.167969 L 337 0.167969 L 337 224.832031 L 0 224.832031 Z M 0 0.167969 " clip-rule="nonzero"/></clipPath><clipPath id="33b82c1930"><path d="M 106 67 L 232.410156 67 L 232.410156 173 L 106 173 Z M 106 67 " clip-rule="nonzero"/></clipPath><clipPath id="98e02efb77"><path d="M 166 181 L 172 181 L 172 194.28125 L 166 194.28125 Z M 166 181 " clip-rule="nonzero"/></clipPath><clipPath id="706d498d01"><path d="M 0 13.351562 L 337 13.351562 L 337 211.808594 L 0 211.808594 Z M 0 13.351562 " clip-rule="nonzero"/></clipPath></defs><g clip-path="url(#cc89b600df)"><path fill="#ffffff" d="M 0 0.167969 L 337 0.167969 L 337 224.832031 L 0 224.832031 Z M 0 0.167969 " fill-opacity="1" fill-rule="nonzero"/><path fill="#ffffff" d="M 0 0.167969 L 337 0.167969 L 337 224.832031 L 0 224.832031 Z M 0 0.167969 " fill-opacity="1" fill-rule="nonzero"/></g><path fill="#4a4947" d="M 215.683594 105.96875 L 204.472656 105.96875 C 201.730469 105.96875 199.5 103.738281 199.5 100.996094 L 199.5 97.335938 C 199.5 94.59375 201.730469 92.363281 204.472656 92.363281 L 215.683594 92.363281 C 218.425781 92.363281 220.65625 94.59375 220.65625 97.335938 L 220.65625 100.996094 C 220.664062 103.738281 218.425781 105.96875 215.683594 105.96875 Z M 204.972656 100.503906 L 215.199219 100.503906 L 215.199219 97.828125 L 204.972656 97.828125 Z M 204.972656 100.503906 " fill-opacity="1" fill-rule="nonzero"/><g clip-path="url(#33b82c1930)"><path fill="#4a4947" d="M 220.382812 84.433594 L 193.945312 84.433594 L 190.550781 72.9375 C 189.667969 69.960938 186.644531 67.875 183.191406 67.875 L 155.011719 67.875 C 151.558594 67.875 148.527344 69.953125 147.652344 72.9375 L 144.257812 84.429688 L 137.226562 84.429688 L 137.226562 80.179688 C 137.226562 77.671875 135.1875 75.636719 132.6875 75.636719 L 121.660156 75.636719 C 119.148438 75.636719 117.117188 77.679688 117.117188 80.179688 L 117.117188 84.496094 C 110.992188 84.882812 106.117188 89.921875 106.117188 96.136719 L 106.117188 160.839844 C 106.117188 167.296875 111.363281 172.542969 117.820312 172.542969 L 220.382812 172.542969 C 226.839844 172.542969 232.085938 167.296875 232.085938 160.839844 L 232.085938 96.136719 C 232.085938 89.679688 226.839844 84.433594 220.382812 84.433594 Z M 152.898438 74.488281 C 153.0625 73.921875 153.902344 73.339844 155.019531 73.339844 L 183.191406 73.339844 C 184.308594 73.339844 185.148438 73.921875 185.3125 74.480469 L 188.246094 84.429688 L 149.964844 84.429688 Z M 122.574219 81.109375 L 131.765625 81.109375 L 131.765625 84.433594 L 122.574219 84.433594 Z M 117.820312 89.898438 L 220.382812 89.898438 C 223.824219 89.898438 226.621094 92.695312 226.621094 96.136719 L 226.621094 108.320312 L 195.304688 108.320312 C 189.304688 100.082031 179.609375 94.699219 168.65625 94.699219 C 157.703125 94.699219 148.015625 100.082031 142.003906 108.320312 L 111.582031 108.320312 L 111.582031 96.136719 C 111.582031 92.695312 114.378906 89.898438 117.820312 89.898438 Z M 168.664062 100.164062 C 183.839844 100.164062 196.191406 112.515625 196.191406 127.691406 C 196.191406 142.867188 183.839844 155.21875 168.664062 155.21875 C 153.484375 155.21875 141.136719 142.867188 141.136719 127.691406 C 141.136719 112.515625 153.484375 100.164062 168.664062 100.164062 Z M 220.382812 167.078125 L 117.820312 167.078125 C 114.378906 167.078125 111.582031 164.28125 111.582031 160.839844 L 111.582031 113.785156 L 138.785156 113.785156 C 136.804688 118.015625 135.671875 122.71875 135.671875 127.691406 C 135.671875 145.882812 150.46875 160.683594 168.664062 160.683594 C 186.855469 160.683594 201.65625 145.882812 201.65625 127.691406 C 201.65625 122.71875 200.519531 118.015625 198.542969 113.785156 L 226.621094 113.785156 L 226.621094 160.839844 C 226.621094 164.28125 223.824219 167.078125 220.382812 167.078125 Z M 220.382812 167.078125 " fill-opacity="1" fill-rule="nonzero"/></g><path fill="#4a4947" d="M 176.699219 75.75 L 161.503906 75.75 C 159.992188 75.75 158.769531 76.976562 158.769531 78.488281 C 158.769531 80 159.992188 81.222656 161.503906 81.222656 L 176.707031 81.222656 C 178.21875 81.222656 179.441406 80 179.441406 78.488281 C 179.441406 76.976562 178.210938 75.75 176.699219 75.75 Z M 176.699219 75.75 " fill-opacity="1" fill-rule="nonzero"/><path fill="#4a4947" d="M 168.664062 152.835938 C 154.792969 152.835938 143.515625 141.554688 143.515625 127.691406 C 143.515625 113.820312 154.800781 102.546875 168.664062 102.546875 C 182.53125 102.546875 193.808594 113.828125 193.808594 127.691406 C 193.808594 141.554688 182.523438 152.835938 168.664062 152.835938 Z M 168.664062 108.007812 C 157.808594 108.007812 148.980469 116.835938 148.980469 127.691406 C 148.980469 138.546875 157.808594 147.371094 168.664062 147.371094 C 179.515625 147.371094 188.34375 138.546875 188.34375 127.691406 C 188.34375 116.835938 179.515625 108.007812 168.664062 108.007812 Z M 168.664062 108.007812 " fill-opacity="1" fill-rule="nonzero"/><path fill="#4a4947" d="M 152.972656 130.417969 C 151.460938 130.417969 150.234375 129.195312 150.234375 127.683594 C 150.234375 117.527344 158.496094 109.265625 168.65625 109.265625 C 170.167969 109.265625 171.390625 110.488281 171.390625 112 C 171.390625 113.511719 170.167969 114.738281 168.65625 114.738281 C 161.511719 114.738281 155.699219 120.546875 155.699219 127.691406 C 155.699219 129.195312 154.484375 130.417969 152.972656 130.417969 Z M 152.972656 130.417969 " fill-opacity="1" fill-rule="nonzero"/><path fill="#4a4947" d="M 122.285156 163.042969 C 118.082031 163.042969 114.667969 159.625 114.667969 155.421875 C 114.667969 151.21875 118.082031 147.804688 122.285156 147.804688 C 126.488281 147.804688 129.90625 151.21875 129.90625 155.421875 C 129.90625 159.625 126.488281 163.042969 122.285156 163.042969 Z M 122.285156 153.269531 C 121.097656 153.269531 120.132812 154.234375 120.132812 155.421875 C 120.132812 156.609375 121.097656 157.578125 122.285156 157.578125 C 123.472656 157.578125 124.441406 156.609375 124.441406 155.421875 C 124.441406 154.234375 123.472656 153.269531 122.285156 153.269531 Z M 122.285156 153.269531 " fill-opacity="1" fill-rule="nonzero"/><path fill="#4a4947" d="M 168.800781 59.0625 C 167.289062 59.0625 166.0625 57.835938 166.0625 56.328125 L 166.0625 48.738281 C 166.0625 47.226562 167.289062 46 168.800781 46 C 170.3125 46 171.535156 47.226562 171.535156 48.738281 L 171.535156 56.332031 C 171.527344 57.835938 170.304688 59.0625 168.800781 59.0625 Z M 168.800781 59.0625 " fill-opacity="1" fill-rule="nonzero"/><path fill="#4a4947" d="M 155.390625 63.226562 C 154.6875 63.226562 153.992188 62.960938 153.457031 62.425781 L 148.089844 57.058594 C 147.023438 55.992188 147.023438 54.261719 148.089844 53.195312 C 149.15625 52.132812 150.886719 52.132812 151.953125 53.195312 L 157.316406 58.5625 C 158.382812 59.628906 158.382812 61.359375 157.316406 62.425781 C 156.789062 62.960938 156.085938 63.226562 155.390625 63.226562 Z M 155.390625 63.226562 " fill-opacity="1" fill-rule="nonzero"/><path fill="#4a4947" d="M 182.8125 63.226562 C 182.109375 63.226562 181.414062 62.960938 180.878906 62.425781 C 179.8125 61.359375 179.8125 59.628906 180.878906 58.5625 L 186.242188 53.195312 C 187.308594 52.132812 189.039062 52.132812 190.105469 53.195312 C 191.171875 54.261719 191.171875 55.992188 190.105469 57.058594 L 184.738281 62.425781 C 184.210938 62.960938 183.515625 63.226562 182.8125 63.226562 Z M 182.8125 63.226562 " fill-opacity="1" fill-rule="nonzero"/><g clip-path="url(#98e02efb77)"><path fill="#4a4947" d="M 168.800781 194.414062 C 167.289062 194.414062 166.0625 193.191406 166.0625 191.679688 L 166.0625 184.089844 C 166.0625 182.578125 167.289062 181.355469 168.800781 181.355469 C 170.3125 181.355469 171.535156 182.578125 171.535156 184.089844 L 171.535156 191.6875 C 171.527344 193.199219 170.304688 194.414062 168.800781 194.414062 Z M 168.800781 194.414062 " fill-opacity="1" fill-rule="nonzero"/></g><path fill="#4a4947" d="M 150.015625 188.027344 C 149.3125 188.027344 148.617188 187.765625 148.082031 187.226562 C 147.015625 186.160156 147.015625 184.429688 148.082031 183.367188 L 153.449219 178 C 154.515625 176.933594 156.246094 176.933594 157.3125 178 C 158.375 179.066406 158.375 180.796875 157.3125 181.859375 L 151.945312 187.226562 C 151.414062 187.757812 150.71875 188.027344 150.015625 188.027344 Z M 150.015625 188.027344 " fill-opacity="1" fill-rule="nonzero"/><path fill="#4a4947" d="M 188.1875 188.027344 C 187.484375 188.027344 186.789062 187.765625 186.25 187.226562 L 180.886719 181.859375 C 179.820312 180.796875 179.820312 179.066406 180.886719 178 C 181.949219 176.933594 183.679688 176.933594 184.746094 178 L 190.113281 183.367188 C 191.179688 184.429688 191.179688 186.160156 190.113281 187.226562 C 189.585938 187.757812 188.882812 188.027344 188.1875 188.027344 Z M 188.1875 188.027344 " fill-opacity="1" fill-rule="nonzero"/><g clip-path="url(#706d498d01)"><path fill="#d8d2c2" d="M 338.003906 88.15625 C 337.78125 83.957031 336.96875 79.78125 335.550781 75.820312 C 333.253906 69.144531 330.394531 62.613281 326.46875 56.726562 C 323.359375 51.976562 319.628906 47.652344 315.496094 43.765625 C 311.746094 40.367188 307.675781 37.316406 303.375 34.640625 C 302.054688 33.839844 300.75 33.007812 299.371094 32.308594 C 297.105469 31.058594 294.773438 29.949219 292.429688 28.859375 C 288.023438 26.847656 283.539062 25.015625 278.984375 23.375 C 276.976562 22.707031 274.941406 22.140625 272.921875 21.507812 C 271.035156 21.007812 269.144531 20.527344 267.253906 20.035156 C 263.847656 19.179688 260.429688 18.363281 256.992188 17.640625 C 255.808594 17.390625 254.625 17.136719 253.441406 16.886719 C 251.628906 16.597656 249.816406 16.308594 248.003906 16.019531 C 244.714844 15.488281 241.386719 15.171875 238.078125 14.757812 C 233.578125 14.277344 229.066406 13.863281 224.550781 13.542969 C 222.109375 13.453125 219.664062 13.414062 217.222656 13.34375 C 210.230469 13.371094 203.242188 13.65625 196.257812 14.007812 C 189.5 14.464844 182.769531 15.285156 176.085938 16.382812 C 170.558594 17.292969 165.0625 18.386719 159.609375 19.660156 C 161.152344 19.753906 162.699219 19.84375 164.242188 19.925781 C 172.988281 20.394531 181.746094 20.675781 190.503906 20.636719 C 196.742188 20.65625 202.972656 20.351562 209.203125 20.074219 C 212.878906 19.96875 216.554688 19.878906 220.226562 19.820312 C 222.816406 19.886719 225.40625 19.953125 227.996094 20.023438 C 234.195312 20.46875 240.382812 21.054688 246.546875 21.832031 C 249.914062 22.191406 253.246094 22.777344 256.585938 23.308594 C 261.015625 24.1875 262.941406 24.625 267.035156 25.605469 C 271.039062 26.574219 275.035156 27.582031 278.964844 28.820312 C 281.421875 29.523438 283.804688 30.445312 286.183594 31.363281 C 290.625 33.125 295.003906 35.042969 299.289062 37.152344 C 299.757812 37.402344 300.226562 37.652344 300.695312 37.902344 C 301.289062 38.21875 301.882812 38.53125 302.472656 38.847656 C 304.476562 40.042969 306.445312 41.289062 308.371094 42.601562 C 310.046875 43.777344 311.679688 45.007812 313.28125 46.285156 C 314.128906 47.042969 314.996094 47.78125 315.835938 48.550781 C 316.140625 48.851562 316.449219 49.148438 316.753906 49.449219 C 317.0625 49.75 317.371094 50.050781 317.679688 50.355469 C 318.417969 51.15625 319.179688 51.941406 319.875 52.777344 C 320.34375 53.339844 320.808594 53.902344 321.277344 54.464844 C 321.929688 55.335938 322.605469 56.191406 323.210938 57.09375 C 323.613281 57.703125 324.015625 58.308594 324.421875 58.914062 L 325.609375 60.953125 C 326 61.597656 326.320312 62.285156 326.671875 62.953125 C 326.871094 63.339844 327.070312 63.722656 327.269531 64.109375 C 328.351562 66.460938 329.371094 68.835938 330.257812 71.265625 C 331.421875 74.589844 331.453125 74.324219 332.332031 78.160156 C 332.742188 80.070312 333.15625 82.9375 332.953125 86.464844 C 332.828125 88.753906 332.746094 90.183594 332.550781 91.265625 C 332.097656 93.976562 331.230469 96.609375 330.265625 99.179688 C 327.558594 106.601562 322.316406 114.679688 318.492188 119.925781 C 315.621094 123.964844 312.488281 127.804688 309.121094 131.4375 C 305.429688 135.578125 301.410156 139.40625 297.1875 143 C 287.566406 151.230469 276.980469 158.3125 265.765625 164.179688 C 256.746094 168.914062 247.417969 173.03125 237.976562 176.847656 C 231.011719 179.679688 223.992188 182.386719 216.871094 184.8125 C 210.816406 186.875 204.753906 188.917969 198.632812 190.78125 C 193.832031 192.203125 191.023438 192.953125 186.234375 194.25 C 181.882812 195.40625 177.519531 196.507812 173.136719 197.523438 C 165.367188 199.179688 157.574219 200.738281 149.726562 201.960938 C 135.226562 203.992188 120.578125 204.820312 105.941406 204.808594 C 100.875 204.792969 95.808594 204.707031 90.746094 204.496094 C 83.242188 204.023438 75.75 203.296875 68.347656 201.953125 C 60.4375 200.519531 55.113281 199.402344 47.585938 196.644531 C 43.828125 195.308594 40.136719 193.773438 36.5 192.140625 C 34.328125 191.140625 32.132812 190.179688 30.050781 188.996094 C 30.242188 189.105469 30.4375 189.210938 30.632812 189.320312 C 30.359375 189.167969 30.085938 189.011719 29.816406 188.851562 C 29.113281 188.445312 28.4375 188.007812 27.765625 187.558594 C 26.429688 186.671875 25.136719 185.722656 23.832031 184.792969 C 23.335938 184.449219 22.871094 184.070312 22.394531 183.703125 C 21.847656 183.277344 21.296875 182.851562 20.75 182.425781 C 19.089844 181.023438 17.429688 179.617188 15.847656 178.121094 C 13.597656 176.019531 14.683594 177.113281 12.851562 175.128906 C 12.386719 174.605469 11.9375 174.066406 11.5 173.519531 C 11.226562 173.164062 10.960938 172.804688 10.703125 172.433594 C 10.398438 172.011719 10.109375 171.582031 9.828125 171.148438 C 9.410156 170.445312 9.03125 169.714844 8.664062 168.984375 C 7.878906 167.34375 7.085938 165.707031 6.484375 163.996094 C 6.292969 163.386719 6.128906 162.769531 6.007812 162.144531 C 5.953125 161.871094 5.894531 161.597656 5.847656 161.324219 C 5.773438 160.910156 5.699219 160.496094 5.628906 160.082031 C 5.328125 157.902344 5.25 155.695312 5.34375 153.496094 C 5.578125 150.347656 5.710938 149.226562 6.628906 145.757812 C 7.589844 142.324219 8.9375 139.007812 10.589844 135.84375 C 11.992188 133.152344 13.542969 130.535156 15.238281 128.015625 C 20.175781 121.15625 26.015625 115.007812 32.101562 109.164062 C 37.492188 104.109375 43.097656 99.269531 49 94.820312 C 54.09375 91.039062 59.386719 87.523438 64.753906 84.148438 C 70.25 80.742188 75.878906 77.554688 81.585938 74.523438 C 92.382812 69 103.476562 64.066406 114.691406 59.453125 C 121.707031 56.628906 128.828125 54.066406 135.976562 51.597656 C 143.578125 49.070312 150.640625 46.980469 157.496094 45.195312 C 168.507812 42.238281 179.699219 40.011719 190.96875 38.300781 C 200.089844 36.894531 209.253906 35.703125 218.464844 35.074219 C 223.625 34.710938 228.796875 34.488281 233.96875 34.445312 C 237.242188 34.390625 240.511719 34.289062 243.789062 34.324219 C 246.425781 34.347656 249.0625 34.394531 251.699219 34.480469 C 256.132812 34.601562 260.355469 34.980469 264.160156 36.214844 C 265.28125 36.578125 266.359375 37.066406 267.378906 37.65625 C 267.917969 37.972656 268.445312 38.410156 268.609375 39 C 268.691406 39.234375 268.765625 39.472656 268.839844 39.707031 C 268.777344 39.289062 268.753906 38.859375 268.546875 38.480469 C 268.242188 37.902344 267.773438 37.4375 267.28125 37.019531 C 266.59375 36.457031 265.878906 35.9375 265.140625 35.449219 C 261.140625 32.953125 256.601562 31.4375 252.019531 30.410156 C 246.347656 29.210938 240.589844 28.355469 234.792969 28.078125 C 226.15625 27.730469 217.507812 28.328125 208.90625 29.066406 C 203.042969 29.566406 197.214844 30.375 191.394531 31.199219 C 184.210938 32.242188 177.054688 33.453125 169.941406 34.894531 C 158.125 37.359375 146.457031 40.546875 134.957031 44.210938 C 127.554688 46.601562 120.261719 49.328125 112.992188 52.089844 C 106.109375 54.824219 99.324219 57.789062 92.574219 60.835938 C 87 63.398438 81.4375 66 76.015625 68.875 C 71.453125 71.296875 66.988281 73.894531 62.539062 76.515625 C 59.011719 78.675781 55.546875 80.929688 52.117188 83.242188 C 43.410156 89.007812 35.359375 95.707031 27.75 102.84375 C 21.566406 108.777344 15.636719 115.019531 10.648438 122.007812 C 8.867188 124.5625 7.292969 127.257812 5.832031 130.007812 C 2.808594 135.761719 0.699219 142.074219 0.367188 148.59375 C 0.203125 151.394531 0.355469 154.214844 0.855469 156.976562 C 1.25 159.664062 2.074219 162.269531 3.203125 164.742188 C 4.121094 166.726562 5.039062 168.714844 6.089844 170.636719 C 7.132812 172.425781 8.285156 174.15625 9.570312 175.785156 C 12.0625 179.105469 15.089844 181.96875 18.183594 184.71875 C 22.054688 188.085938 26.125 191.226562 30.445312 193.996094 C 33.570312 195.925781 36.921875 197.433594 40.269531 198.933594 C 45.171875 201.078125 50.160156 203.035156 55.273438 204.628906 C 60.234375 206.1875 65.339844 207.21875 70.445312 208.175781 C 78.25 209.65625 86.160156 210.480469 94.085938 210.972656 C 110.304688 211.632812 126.589844 211.351562 142.746094 209.722656 C 146.234375 209.378906 149.710938 208.945312 153.183594 208.476562 C 157.671875 207.777344 162.140625 206.980469 166.59375 206.097656 C 173.113281 204.835938 179.605469 203.445312 186.019531 201.738281 C 195.984375 199.191406 205.867188 196.335938 215.597656 193.007812 C 223.023438 190.523438 230.40625 187.925781 237.671875 185.003906 C 251.507812 179.527344 265.226562 173.601562 278.074219 166.050781 C 288.808594 159.703125 298.847656 152.179688 307.894531 143.585938 C 310.238281 141.28125 312.480469 138.878906 314.671875 136.433594 C 316.753906 134.125 318.765625 131.75 320.621094 129.257812 C 327.640625 119.894531 334.371094 109.855469 337.136719 98.335938 C 337.507812 96.632812 337.710938 94.890625 337.824219 93.152344 C 337.929688 91.488281 338.054688 89.820312 338.003906 88.15625 Z M 338.003906 88.15625 " fill-opacity="1" fill-rule="nonzero"/></g><g fill="#b17457" fill-opacity="0.4"><g transform="translate(42.412993, 173.112836)"><g><path d="M 45.40625 -47.296875 C 46.03125 -47.296875 46.34375 -46.976562 46.34375 -46.34375 C 46.34375 -45.71875 46.03125 -45.40625 45.40625 -45.40625 L 40.8125 -45.40625 L 40.8125 -1.015625 C 40.8125 0.335938 40.492188 1.015625 39.859375 1.015625 C 39.234375 1.015625 38.625 0.585938 38.03125 -0.265625 L 9.046875 -42.09375 L 9.046875 -1.890625 L 15.203125 -1.890625 C 15.878906 -1.890625 16.21875 -1.578125 16.21875 -0.953125 C 16.21875 -0.316406 15.878906 0 15.203125 0 L 2.765625 0 C 2.546875 0 2.332031 -0.078125 2.125 -0.234375 C 1.925781 -0.390625 1.828125 -0.628906 1.828125 -0.953125 C 1.828125 -1.210938 1.925781 -1.429688 2.125 -1.609375 C 2.332031 -1.796875 2.546875 -1.890625 2.765625 -1.890625 L 7.03125 -1.890625 L 7.03125 -45.40625 L 3.3125 -45.40625 C 2.726562 -45.40625 2.4375 -45.71875 2.4375 -46.34375 C 2.4375 -46.976562 2.726562 -47.296875 3.3125 -47.296875 L 17.765625 -47.296875 C 18.035156 -47.296875 18.238281 -47.207031 18.375 -47.03125 L 38.78125 -17.5 L 38.78125 -45.40625 L 34.328125 -45.40625 C 33.648438 -45.40625 33.3125 -45.71875 33.3125 -46.34375 C 33.3125 -46.976562 33.648438 -47.296875 34.328125 -47.296875 Z M 38.78125 -2.703125 L 38.78125 -14.046875 L 17.09375 -45.40625 L 9.1875 -45.40625 Z M 38.78125 -2.703125 "/></g></g></g><g fill="#b17457" fill-opacity="1"><g transform="translate(39.427143, 170.126987)"><g><path d="M 45.40625 -47.296875 C 46.03125 -47.296875 46.34375 -46.976562 46.34375 -46.34375 C 46.34375 -45.71875 46.03125 -45.40625 45.40625 -45.40625 L 40.8125 -45.40625 L 40.8125 -1.015625 C 40.8125 0.335938 40.492188 1.015625 39.859375 1.015625 C 39.234375 1.015625 38.625 0.585938 38.03125 -0.265625 L 9.046875 -42.09375 L 9.046875 -1.890625 L 15.203125 -1.890625 C 15.878906 -1.890625 16.21875 -1.578125 16.21875 -0.953125 C 16.21875 -0.316406 15.878906 0 15.203125 0 L 2.765625 0 C 2.546875 0 2.332031 -0.078125 2.125 -0.234375 C 1.925781 -0.390625 1.828125 -0.628906 1.828125 -0.953125 C 1.828125 -1.210938 1.925781 -1.429688 2.125 -1.609375 C 2.332031 -1.796875 2.546875 -1.890625 2.765625 -1.890625 L 7.03125 -1.890625 L 7.03125 -45.40625 L 3.3125 -45.40625 C 2.726562 -45.40625 2.4375 -45.71875 2.4375 -46.34375 C 2.4375 -46.976562 2.726562 -47.296875 3.3125 -47.296875 L 17.765625 -47.296875 C 18.035156 -47.296875 18.238281 -47.207031 18.375 -47.03125 L 38.78125 -17.5 L 38.78125 -45.40625 L 34.328125 -45.40625 C 33.648438 -45.40625 33.3125 -45.71875 33.3125 -46.34375 C 33.3125 -46.976562 33.648438 -47.296875 34.328125 -47.296875 Z M 38.78125 -2.703125 L 38.78125 -14.046875 L 17.09375 -45.40625 L 9.1875 -45.40625 Z M 38.78125 -2.703125 "/></g></g></g><g fill="#b17457" fill-opacity="0.4"><g transform="translate(261.701775, 115.705093)"><g><path d="M 31.078125 -47.296875 C 31.710938 -47.296875 32.03125 -46.976562 32.03125 -46.34375 C 32.03125 -45.71875 31.710938 -45.40625 31.078125 -45.40625 L 27.90625 -45.40625 L 27.90625 -13.171875 C 27.90625 -10.554688 27.285156 -8.179688 26.046875 -6.046875 C 24.804688 -3.910156 23.140625 -2.195312 21.046875 -0.90625 C 18.953125 0.375 16.617188 1.015625 14.046875 1.015625 C 11.617188 1.015625 9.378906 0.453125 7.328125 -0.671875 C 5.273438 -1.796875 3.617188 -3.335938 2.359375 -5.296875 C 1.097656 -7.265625 0.378906 -9.441406 0.203125 -11.828125 L 0.203125 -11.953125 C 0.203125 -12.222656 0.300781 -12.445312 0.5 -12.625 C 0.707031 -12.8125 0.925781 -12.90625 1.15625 -12.90625 L 1.21875 -12.90625 C 1.800781 -12.90625 2.140625 -12.585938 2.234375 -11.953125 C 2.410156 -9.929688 3.039062 -8.085938 4.125 -6.421875 C 5.207031 -4.753906 6.613281 -3.4375 8.34375 -2.46875 C 10.070312 -1.5 11.972656 -1.015625 14.046875 -1.015625 C 14.640625 -1.015625 15.21875 -1.046875 15.78125 -1.109375 C 16.34375 -1.179688 16.867188 -1.304688 17.359375 -1.484375 L 17.359375 -45.40625 L 14.125 -45.40625 C 13.488281 -45.40625 13.171875 -45.71875 13.171875 -46.34375 C 13.171875 -46.976562 13.488281 -47.296875 14.125 -47.296875 Z M 25.875 -45.40625 L 19.390625 -45.40625 L 19.390625 -2.296875 C 21.328125 -3.328125 22.890625 -4.8125 24.078125 -6.75 C 25.273438 -8.6875 25.875 -10.828125 25.875 -13.171875 Z M 25.875 -45.40625 "/></g></g></g><g fill="#b17457" fill-opacity="1"><g transform="translate(258.715926, 112.719242)"><g><path d="M 31.078125 -47.296875 C 31.710938 -47.296875 32.03125 -46.976562 32.03125 -46.34375 C 32.03125 -45.71875 31.710938 -45.40625 31.078125 -45.40625 L 27.90625 -45.40625 L 27.90625 -13.171875 C 27.90625 -10.554688 27.285156 -8.179688 26.046875 -6.046875 C 24.804688 -3.910156 23.140625 -2.195312 21.046875 -0.90625 C 18.953125 0.375 16.617188 1.015625 14.046875 1.015625 C 11.617188 1.015625 9.378906 0.453125 7.328125 -0.671875 C 5.273438 -1.796875 3.617188 -3.335938 2.359375 -5.296875 C 1.097656 -7.265625 0.378906 -9.441406 0.203125 -11.828125 L 0.203125 -11.953125 C 0.203125 -12.222656 0.300781 -12.445312 0.5 -12.625 C 0.707031 -12.8125 0.925781 -12.90625 1.15625 -12.90625 L 1.21875 -12.90625 C 1.800781 -12.90625 2.140625 -12.585938 2.234375 -11.953125 C 2.410156 -9.929688 3.039062 -8.085938 4.125 -6.421875 C 5.207031 -4.753906 6.613281 -3.4375 8.34375 -2.46875 C 10.070312 -1.5 11.972656 -1.015625 14.046875 -1.015625 C 14.640625 -1.015625 15.21875 -1.046875 15.78125 -1.109375 C 16.34375 -1.179688 16.867188 -1.304688 17.359375 -1.484375 L 17.359375 -45.40625 L 14.125 -45.40625 C 13.488281 -45.40625 13.171875 -45.71875 13.171875 -46.34375 C 13.171875 -46.976562 13.488281 -47.296875 14.125 -47.296875 Z M 25.875 -45.40625 L 19.390625 -45.40625 L 19.390625 -2.296875 C 21.328125 -3.328125 22.890625 -4.8125 24.078125 -6.75 C 25.273438 -8.6875 25.875 -10.828125 25.875 -13.171875 Z M 25.875 -45.40625 "/></g></g></g></svg>